<svg width="366" height="99" viewBox="0 0 366 99" fill="none" xmlns="http://www.w3.org/2000/svg"><path d="M140.804 52.8883C140.861 52.8759 140.909 52.875 140.963 52.8666L140.97 52.8883H140.804zM83.7839 29.3904C83.7511 29.402 83.7169 29.4113 83.6833 29.4217 83.7169 29.4657 83.7504 29.5089 83.7839 29.5541V29.3904zM34.3517 18.4621C34.1623 18.5254 33.9792 18.6058 33.8048 18.7024 34.0959 18.7622 34.4038 18.8269 34.7314 18.9085 34.5542 18.8103 34.4193 18.6516 34.3517 18.4621zM109.777 55.0912C109.766 55.0953 109.754 55.0984 109.742 55.1022 109.757 55.1524 109.768 55.2034 109.777 55.2549V55.0912zm120.671-3.6358C230.438 51.4468 230.427 51.4389 230.416 51.4318 230.129 51.294 229.988 51.4189 230.085 51.6789 230.199 51.663 230.314 51.6477 230.432 51.6331 230.434 51.5736 230.439 51.5143 230.448 51.4554v0zM5.124 19.0835C5.0128 19.1163 4.97664 19.2368 5.07305 19.4313 5.08364 19.4484 5.09566 19.4646 5.10899 19.4796 5.20335 19.4221 5.30099 19.37 5.40143 19.3236 5.30557 19.2425 5.21686 19.1636 5.124 19.0835zm95.741 31.5958L100.858 50.6892 100.865 50.6793zM366 49.951v1.4687C365.629 51.4197 365.162 51.2763 364.904 51.4451 363.913 52.0923 363.265 53.0941 362.156 53.7221 361.291 54.212 360.746 55.3003 359.511 55.2617 358.911 55.2429 359.986 57.2007 358.447 56.103 357.783 55.6296 356.939 56.5011 356.757 56.6889 356.066 57.3966 355.492 56.598 355.121 56.7545 353.865 57.3183 352.551 57.7475 351.202 58.035 349.823 58.2996 348.306 57.4231 347.012 58.7208 346.544 59.1902 346.016 58.1972 345.496 58.0779 344.973 57.9581 344.227 57.7372 343.798 58.3475 343.561 58.6846 345.186 59.0675 343.887 59.4665 343.048 59.7246 343.153 58.5709 342.908 58.4521 342.164 58.0916 341.606 57.3189 340.304 57.8876 339.635 58.1865 338.899 58.3083 338.168 58.241S336.736 57.9197 336.134 57.5039C335.239 58.3504 334.209 57.3733 333.298 57.7065 332.71 57.9216 332.056 59.8572 331.691 57.5479 331.624 57.1203 330.952 57.459 330.728 57.2723 329.934 56.6105 329.602 58.6802 328.585 57.5197 328.197 57.0762 326.973 57.3266 326.129 57.3002 325.264 57.2731 324.396 57.2625 323.532 57.3025 322.595 57.2866 321.673 57.062 320.835 56.6456 319.878 56.2637 318.349 56.9709 317.608 56.4514 316.763 55.8583 315.99 56.7701 315.373 56.0812 315.146 55.8879 314.866 55.7648 314.569 55.7268 314.271 55.6889 313.969 55.7379 313.699 55.8677 312.85 57.5202 311.39 55.3227 310.529 56.4194 309.46 55.6611 308.403 54.9536 307.995 57.0028 307.202 56.8088 306.152 56.7463 305.903 55.9433 305.616 55.0205 305.448 55.0001 304.892 55.6663 304.194 56.502 303.506 57.0726 302.546 55.9209 302.388 55.7314 301.85 55.8669 301.492 55.8225 299.949 55.6316 298.417 55.8842 296.821 55.5188 295.794 55.2838 294.405 55.5663 293.233 55.401 292.372 55.2796 291.441 56.6509 290.573 55.1587 290.241 54.5895 289.102 56.2535 288.268 55.1156 288.141 54.9413 287.523 54.9913 287.196 55.1101 286.252 55.4529 285.494 56.3374 284.28 55.5034 283.543 54.9968 282.745 56.1146 281.794 55.8615 281.102 55.6774 280.157 56.0911 279.613 55.7662 278.687 55.2129 278.362 57.16 277.48 56.0772 277.061 55.5635 276.467 57.0432 275.867 56.0078 275.69 55.7036 275.384 56.2019 275.394 56.5587 275.404 56.9164 274.989 57.3483 274.932 57.1278 274.373 54.9671 273.334 56.8296 272.553 56.8215 272.38 56.8196 272.204 57.1136 272.029 57.2713 271.062 55.4309 269.865 57.9237 268.998 57.1528 268.008 56.2727 266.621 56.21 266.04 56.7954 265.015 57.8279 264.209 56.4518 263.687 56.8614 262.977 57.4187 262.306 57.1829 261.619 57.2982 260.708 57.4509 259.928 57.8539 258.863 57.3603 257.483 56.7211 256.116 57.8739 254.86 58.3129 253.873 58.6576 253.458 58.7529 252.739 58.0654 252.152 57.5042 251.803 56.5417 250.784 56.5741 250.066 56.5969 249.524 58.0604 248.667 56.9074 248.098 56.141 247.656 57.8126 247.026 56.8639 246.724 56.4087 245.758 57.5495 245.239 56.6355 244.392 57.6057 244.499 57.0359 244.095 56.227 243.666 55.3676 242.202 55.8217 241.248 55.1754 240.56 54.7098 239.49 53.627 239.427 53.7179 238.535 54.996 237.042 53.8887 236.036 54.6614 235.519 55.0586 233.955 54.1249 234.526 55.914 234.648 56.2943 234.308 56.5285 233.876 56.5674 233.7 56.5963 233.518 56.5592 233.368 56.4633 233.217 56.3675 233.108 56.2197 233.062 56.0487 232.937 55.7329 232.818 55.4147 232.697 55.0976 232.571 55.2864 232.308 55.5018 232.34 55.6598 232.699 57.4633 231.292 57.8562 230.111 58.3535 228.716 58.9407 227.224 59.9925 226.009 58.0317 225.045 58.4622 224.33 56.3298 223.147 57.802 222.91 58.0973 221.599 56.6349 221.046 55.3599 220.804 54.8024 220.149 55.1902 219.693 55.0912 219.686 54.787 219.579 54.4933 219.388 54.2544 219.198 54.0156 218.934 53.8445 218.636 53.7672 217.921 53.6877 218.48 54.857 217.853 55.0452 217.488 55.1546 217.426 54.0303 216.828 54.6516 216.555 54.9353 216.859 55.7898 216.297 55.7039 215.754 55.6207 216.038 54.8795 215.982 54.4233 215.924 53.9528 215.989 53.4906 215.231 53.968 213.206 55.2426 211.403 53.6012 209.481 53.4384 209.383 51.8648 208.575 52.6281 207.784 52.8455 207.513 52.966 207.205 52.9799 206.924 52.8843 206.642 52.7887 206.408 52.5909 206.269 52.3309 205.497 51.1423 205.151 51.4814 203.536 51.3548 200.687 51.1313 199.001 52.5548 197.504 54.6043 197.045 55.3354 196.413 55.9458 195.664 56.3831 194.348 56.9881 193.109 57.7551 191.371 56.9456 189.623 56.1316 187.825 55.3497 186.115 54.475 184.393 53.594 183.414 51.7052 182.674 50.0654 181.973 48.5134 181.752 49.9466 181.335 49.9498 180.718 49.9231 180.1 49.9279 179.483 49.964 178.61 50.0605 178.972 50.4035 179.325 50.8126 179.797 51.3604 179.791 51.813 178.998 52.1729 177.864 52.9096 176.924 53.903 176.257 55.0709 175.559 56.4072 174.907 57.5905 173.143 58.113 172.246 58.3778 171.294 58.4109 170.38 58.2092 169.466 58.0075 168.62 57.5776 167.921 56.9606 165.866 55.2428 163.128 53.987 162.372 50.9852 162.268 50.573 161.68 49.7375 161.019 49.9969 160.23 50.3063 159.182 50.4401 158.826 51.3589 158.626 51.8758 158.771 52.4407 158.365 53.0152 157.557 54.1576 155.353 54.2107 155.749 56.2663 154.72 57.247 153.819 58.3504 153.066 59.5511 152.536 60.3533 151.711 61.9877 150.29 60.2679 150.154 60.4322 149.924 60.5823 149.897 60.763 149.67 62.2372 149.103 61.8801 148.219 61.2021 147.299 60.4532 146.622 59.4529 146.273 58.326 145.888 57.16 145.899 57.4442 145.056 57.9195 144.336 58.3254 143.534 58.0147 144.535 56.9944 144.575 56.9537 143.996 56.3579 143.747 55.9932 143.324 55.3728 141.89 55.0312 143.131 53.9235 142.586 53.3055 142.035 52.6989 140.963 52.8666 140.915 52.6782 140.845 52.4957 140.756 52.3226 140.633 52.1289 140.409 52.1766 140.319 52.4606 140.287 52.5606 140.524 52.7435 140.804 52.8884 140.858 53.1802 140.796 53.4812 140.631 53.729 140.467 53.9769 140.212 54.1526 139.92 54.2198 138.544 54.2514 138.727 55.1121 138.743 55.9439 138.757 56.6898 138.822 57.2471 137.675 57.3777 136.895 57.4666 137.833 57.9725 137.888 58.3074 137.993 58.9528 138.432 59.8731 136.994 59 136.28 58.5664 136.747 60.063 136.023 60.4281 135.394 60.7456 135.094 61.2107 135.014 60.1205 134.999 59.9157 134.8 59.7241 134.687 59.5264 134.553 59.6965 134.336 59.8525 134.303 60.0398 134.242 60.3958 134.345 60.7829 134.265 61.1318 134.211 61.37 134.011 62.0581 133.669 61.4135 132.882 59.9278 130.548 60.7645 130.156 59.3314 129.786 57.9804 128.203 57.5475 128.188 56.0766 128.184 55.675 127.519 55.7446 127.234 55.8603 126.754 56.0547 127.025 56.3505 127.277 56.6151 127.779 57.1428 127.76 57.5636 127.109 58.0441 125.684 59.0956 123.56 59.2326 122.956 61.4246 122.775 62.0831 122.368 61.0597 121.969 60.9484 119.819 60.3495 119.764 60.3414 119.289 57.8447 119.196 57.3577 119.036 57.401 118.754 57.2857 118.226 57.0706 117.719 56.8047 117.204 56.5599 117.123 56.3569 117.075 56.005 116.953 55.9776 116.509 55.8778 116.435 56.203 116.461 56.5599 116.091 56.5599 115.448 56.4461 115.392 56.5772 114.683 58.2397 113.362 59.6172 113.445 61.6563 113.548 64.1975 113.389 64.1369 110.678 64.6729 109.715 64.8634 108.72 65.7751 109.008 63.7795 109.105 63.1068 108.303 63.3539 107.984 63.1318 107.029 62.4667 105.446 62.2405 106.013 60.3533 106.282 59.4568 105.688 59.3978 105.112 60.0651 104.961 60.2395 104.568 60.1074 104.626 59.8861 104.875 58.9427 104.031 58.1955 104.175 57.3847 104.301 56.6784 104.4 56.6504 104.009 56.3194 103.845 56.1468 103.645 56.0121 103.423 55.9252 103.201 55.8382 102.962 55.8011 102.723 55.8165 101.594 55.9147 101.361 55.589 102.275 54.786 102.31 54.7394 102.335 54.6858 102.347 54.6289 102.358 54.572 102.358 54.5132 102.344 54.4566 102.16 53.6941 102.867 52.7111 101.86 52.1682 101.091 51.7531 99.9379 52.36 99.4496 53.6598 99.2906 54.0834 98.0851 54.4776 99.1758 55.3359 99.9832 55.9712 98.8679 56.5241 98.6284 57.1118 97.7012 59.3873 97.9266 61.7711 97.8917 64.1336 97.8638 66.0205 97.2072 66.8852 95.4211 67.4502 94.5943 66.3771 93.9195 67.725 93.1223 67.5979 92.3623 67.4767 91.4585 67.6119 92.5696 66.5646 92.5935 66.5421 92.4 66.1622 92.2593 66.124 91.6976 65.9714 90.9645 66.4124 90.5643 65.7912 90.3439 65.4492 91.5338 64.9688 90.9596 64.8458 89.0081 64.4277 90.0122 62.4245 88.9722 61.6387 88.0191 60.9186 89.2951 59.5567 88.0636 58.9409 86.9351 58.3766 88.0654 56.7278 86.7732 56.1488 86.634 56.0864 86.7545 55.4575 86.7545 55.0914 86.9597 55.0108 87.3157 54.964 87.3433 54.8435 87.4442 54.4037 87.1155 54.3309 86.7545 54.357 86.7753 54.2562 86.7706 54.1518 86.7406 54.0533 86.7107 53.9547 86.6565 53.865 86.5829 53.7923 86.5093 53.7195 86.4186 53.6659 86.3189 53.6364 86.2193 53.6068 86.1137 53.6021 86.0118 53.6228 86.0883 52.638 85.0785 53.1239 84.7784 52.7373 84.2249 52.0244 83.8477 52.32 83.465 52.8413 82.6573 53.9413 83.7449 53.482 84.1252 53.6263 85.1619 54.0198 83.7103 55.6887 85.2691 55.8257 85.2982 57.0083 85.6428 58.4075 83.5666 58.0554 83.3396 58.017 83.0959 58.1809 83.2836 58.7162 83.58 59.6874 83.5193 60.7311 83.1122 61.6624 82.9945 62.0602 82.9647 62.4783 83.0246 62.8886 83.0845 63.2988 83.2328 63.6915 83.4595 64.0401 84.7689 66.3414 82.8149 68.5853 83.0062 70.9135 81.8151 71.0512 81.2924 72.1441 80.3952 72.6679 79.9371 72.9355 79.1859 72.6907 78.5695 72.7227 78.4806 72.7376 78.3895 72.7331 78.3025 72.7095 78.2156 72.6859 78.1349 72.6438 78.0661 72.5862 77.9973 72.5286 77.942 72.4568 77.9041 72.3758 77.8663 72.2949 77.8468 72.2068 77.847 72.1176 77.8245 71.6981 77.6455 71.3018 77.3448 71.0052 77.0441 70.7085 76.6428 70.5327 76.2186 70.5115 75.5182 70.4235 75.4006 69.6694 75.6474 69.4669 77.0307 68.332 76.1298 67.5985 75.2683 66.8844 74.4922 66.2409 74.1409 65.7649 74.7873 64.6664 74.9811 64.2194 75.0309 63.7241 74.93 63.248 74.8291 62.772 74.5824 62.3382 74.2234 62.0057 73.9346 61.6992 72.9863 60.5528 74.113 59.7391 74.21 59.669 74.1663 59.2213 74.0398 59.0707 73.5938 58.6505 73.1699 58.2079 72.7697 57.7448 72.5185 57.3716 73.5792 57.2713 73.1734 56.7299 72.9549 56.4385 72.698 56.075 72.3844 55.978 71.9522 55.8444 71.9377 56.2548 71.8891 56.6013 71.7777 57.3953 70.4425 58.0552 71.7248 59.0279 72.0182 59.2505 71.5066 59.4873 71.147 59.5026 70.5283 59.5288 70.1408 59.944 70.8819 60.1588 71.4549 60.3092 71.9694 60.6255 72.3594 61.0671 72.8494 61.6097 72.9006 62.2447 72.0713 62.4083 70.4514 62.7279 70.3834 63.8143 70.4018 65.1044 70.4453 68.1593 70.4151 71.2152 70.4161 74.2708 70.4164 74.9915 70.5793 75.8232 69.3687 75.6627 69.2857 75.6517 69.182 75.793 69.0879 75.8634 70.5318 77.2843 68.5665 78.7058 69.0198 79.9247 69.4819 81.1672 69.357 82.7514 70.6841 83.6474 70.912 83.8013 71.153 83.9392 70.8709 84.4319 69.2484 87.2661 69.7438 90.4074 69.6501 93.469 69.6218 94.3906 70.1158 95.4717 69.2597 96.2235 68.215 97.141 67.0393 97.9113 65.968 98.8015 65.6019 99.1058 65.2132 99.0458 65.2551 98.7203 65.4242 97.4038 63.5878 97.2789 63.7207 96.0227 63.7679 95.5771 63.8547 94.8157 63.3387 94.839 62.8286 94.862 63.0009 95.6314 62.9967 96.0936 62.9934 96.4545 62.9505 96.7833 62.5451 96.8503 62.48 96.8611 62.3309 96.4804 62.2532 96.269 62.231 96.1487 62.2287 96.0257 62.2464 95.9048 62.3529 95.1795 62.3376 94.4417 62.201 93.7213 61.8286 92.7253 61.3691 94.2539 60.9985 93.8422 60.4595 93.2432 60.9447 92.4274 60.7448 91.7531 60.4288 90.6868 61.4745 90.1055 61.5695 89.1255 61.703 87.7471 59.8641 88.4481 60.069 87.603 60.4178 86.1645 59.2889 85.1509 59.2749 83.8619 59.2661 83.0488 59.5237 82.1041 58.1033 82.1668 57.7365 82.1829 57.7401 81.5786 57.7996 81.2353 58.1658 79.1251 58.1124 79.1871 56.8156 77.8258 56.2489 77.2309 56.7082 76.2381 56.3865 75.3919 56.0655 74.5481 56.402 73.4786 55.3654 72.8616 55.0866 72.6956 54.7349 72.4598 54.8167 71.9967 55.0069 71.1683 54.9356 70.3021 54.6123 69.5151 54.289 68.7281 53.7293 68.0581 53.0088 67.5957 52.1566 66.9839 52.5822 65.9954 52.6279 65.2118 52.6914 63.6912 52.2819 62.1879 51.4544 60.9048 50.9809 60.1015 50.8666 59.2055 49.4836 59.437 48.615 59.5825 48.9894 58.934 49.3889 58.6388 50.1464 58.0789 50.2803 57.6207 49.6698 56.7371 49.0701 55.869 50.5006 54.3547 48.8782 53.6228 47.8687 51.8552 48.2302 49.5556 46.6502 48.0094 47.3795 45.7177 44.3724 44.4159 45.0583 42.1356 43.9506 41.3203 44.5773 40.1441 44.4332 39.1316 44.3636 38.6418 44.3955 38.1472 43.6795 38.2023 43.598 37.9993 43.5506 37.6473 43.4288 37.62 42.984 37.5202 42.9104 37.8453 42.9368 38.2023H42.1941C42.1434 38.0067 42.0718 37.8171 41.9806 37.6365 41.8578 37.4428 41.633 37.4905 41.5434 37.7745 41.5117 37.8745 41.7485 38.0574 42.0284 38.2023 42.0706 39.4974 43.313 40.5225 42.9378 41.8675 42.9972 41.8137 43.1099 41.8129 43.2621 41.8859 43.4136 41.9586 43.5024 42.1592 43.6188 42.3008 43.5328 42.3859 43.4114 42.542 43.3839 42.5272 43.2104 42.4592 43.0598 42.3441 42.9495 42.1951 42.8747 42.0444 42.8752 41.9326 42.9304 41.874 42.8089 41.846 42.6818 41.8537 42.5646 41.8959 42.4474 41.9382 42.3451 42.0133 42.2703 42.112 42.1955 42.2108 42.1514 42.3289 42.1433 42.452 42.1352 42.5751 42.1636 42.6979 42.2248 42.8054 43.2895 44.6259 43.7998 46.7117 43.6944 48.8122 43.6762 49.1461 43.7518 49.4785 43.9129 49.7726 46.4528 49.7618 43.9243 51.8128 45.0039 52.3621 44.7891 57.1882 45.0848 58.7786 47.0065 63.1554 47.1429 63.466 47.2834 63.7768 47.3892 64.098 47.6601 64.9206 46.9263 65.3783 46.6307 65.9828 46.2982 66.663 48.013 66.9786 46.9004 67.6786 46.0771 68.1967 47.4135 69.7238 46.057 69.7176 44.6752 69.7112 43.0954 70.4227 41.8897 69.1067 41.1657 68.4776 40.5422 67.7437 40.0407 66.9298 39.8285 66.4589 38.5837 65.6576 39.9659 65.0048 39.7703 64.8824 39.5821 64.6741 39.3771 64.6563 39.0137 64.6248 38.4965 64.3095 38.5534 64.2698 39.5875 63.5482 39.262 62.4855 39.1828 61.5856 39.1068 60.7218 37.6034 61.0164 37.4922 59.7499 37.4448 59.21 37.1434 58.8346 37.6917 58.4463 38.433 57.9214 38.5932 57.4496 37.7108 56.8706 37.4866 56.7709 37.2979 56.6068 37.1691 56.3998 37.0402 56.1927 36.9773 55.9522 36.9883 55.7093 37.0606 55.105 37.8793 54.9128 37.753 54.1789 37.6016 53.2986 36.2555 53.6938 36.4198 53.3868 36.9105 52.4705 36.9322 52.18 35.7886 51.9975 35.3187 51.9225 35.303 50.9514 35.7754 50.8546 36.9866 50.6063 37.2225 50.3254 36.1792 49.4998 35.5725 49.0198 35.0955 48.4511 35.9001 47.7427 36.1459 47.5262 36.1793 47.415 36.0997 47.2126 35.8929 46.6871 34.6409 47.4516 35.0336 46.463 35.14 46.3021 35.1989 46.115 35.2037 45.9228 35.2085 45.7305 35.159 45.5408 35.0607 45.3749 34.7182 44.6223 33.9202 43.9198 34.6852 42.7537 35.1855 41.9909 33.8897 41.3996 33.3103 40.8538 32.6562 40.2374 32.6407 39.9388 33.2144 39.2058 33.5273 38.8059 33.2805 37.9429 32.8085 37.2325 32.3972 36.6134 31.4124 35.6603 32.5144 34.6449 32.7394 34.4374 32.4477 33.8299 32.0946 33.8284 31.3088 33.8249 30.9212 33.5562 31.0614 32.7786 31.2406 31.3731 30.8692 29.9531 30.0235 28.8098 29.6844 28.2736 29.7042 28.1242 30.0933 27.7219 30.2803 27.5285 30.2016 27.0838 30.2431 26.7529 28.3295 26.9258 29.3883 24.5909 28.0834 24.2504 28.1583 23.6087 28.8738 23.2041 28.1662 22.2645 27.3105 21.1285 26.8889 19.7514 24.5346 20.1909 25.0615 20.5036 25.251 20.9955 24.1991 21.4131 22.5769 22.0571 22.5137 22.4987 23.2784 24.1976 23.5298 24.6715 23.6816 25.191 23.7244 25.7245 23.7673 26.2581 23.7003 26.7947 23.5276 27.302 22.8539 28.6216 24.2632 30.1272 22.9039 31.2073 23.8818 32.7216 23.2894 34.6023 24.1252 36.1882 24.4999 36.8991 25.092 38.0219 23.339 38.2491 22.5806 38.3475 22.9464 39.2512 22.8899 39.8056 22.7673 41.008 23.9207 41.8797 23.7834 43.1101 23.7552 43.3626 24.5087 43.4941 24.175 43.8685 23.5724 44.5444 22.9872 45.7395 23.2419 46.1055c.6723.9664.204799999999999 1.8897.3765 2.799C23.789 49.8086 23.2157 50.8615 24.1848 51.6039 23.1801 53.3486 23.7234 55.2517 23.6565 57.0834 23.6235 57.9851 23.4521 58.8691 24.195 59.8023 25.0566 60.8846 23.8527 62.0187 23.3595 62.9465 22.9005 63.8101 22.9705 63.8016 23.7956 63.9224 24.7248 64.0584 24.3599 64.8607 24.3515 65.3836 24.3275 66.8904 22.7756 68.3826 24.2972 69.9701 24.3399 70.0146 23.8321 71.1194 24.196 71.7854 23.0386 72.2422 24.6318 72.8172 24.1181 73.3464 23.3189 74.1694 25.214 75.4782 23.6274 76.1944 24.3273 77.0901 23.892 77.9728 23.6485 78.8871 23.5269 79.3436 23.4198 80.0353 23.6641 80.3148 24.6104 81.3973 24.7637 82.3649 23.6539 83.3886 24.9361 84.3613 22.757 85.5381 23.7636 86.3765 24.8096 87.2478 22.5058 88.6243 24.345 89.2121 23.4759 91.6633 23.5805 94.5758 20.9759 96.1978 20.7435 96.2818 20.4871 96.2721 20.262 96.1707 19.9461 96.0514 19.9294 95.8572 20.0916 95.6638 21.4854 94.0019 20.2555 94.0238 19.0147 93.9957 18.7014 93.9885 18.4582 93.8156 18.5415 93.3181 18.6156 93.3165 18.6883 93.2977 18.7536 93.2631 18.9043 93.154 19.0207 93.0051 19.0895 92.8335 19.1045 92.8062 18.9466 92.6862 18.6446 92.9383 18.7171 92.7163 18.5144 92.8041 18.4409 92.954 18.4268 92.9875 18.4166 93.0224 18.4103 93.0582 18.2537 93.1642 18.0761 93.2361 17.8894 93.2694 17.7026 93.3026 17.5108 93.2963 17.3267 93.2509 16.8667 93.0661 17.1813 92.8029 17.3346 92.4887 17.8832 91.3644 18.0401 90.2606 16.9888 89.2427 16.6624 88.9267 15.8172 82.8272 15.8753 82.2273 15.8844 82.1334 16.0391 82.0534 16.1265 81.9671 13.9483 80.879 15.222 78.5107 14.2325 76.9289 13.6652 76.0221 13.0979 74.5909 13.4433 73.7723 13.9706 72.5228 12.9529 71.7355 13.1548 70.6145 13.467 68.8811 13.1114 67.8007 12.1481 66.9348 11.0611 65.9579 12.9744 64.9566 11.9526 64.0607 11.9274 63.5251 11.9305 62.9886 11.9621 62.4533 11.999 62.447 12.0351 62.4365 12.0696 62.4221 12.2202 62.313 12.3367 62.1641 12.4055 61.9925 12.4205 61.9652 12.2626 61.8451 11.9605 62.0973 12.0331 61.8753 11.8304 61.9631 11.7569 62.1129L11.7543 62.1215C10.8141 62.2204 10.83 61.3572 11.1746 61.2625 12.4562 60.9102 12.2933 60.412 11.7636 59.5239 11.1852 58.5543 10.7847 57.4828 10.2488 56.4861 10.0347 56.1971 9.91302 55.8513 9.89954 55.4932 9.88607 55.1351 9.9814 54.7813 10.1733 54.4773 10.3906 54.0954 11.2041 53.515 10.7777 53.1151 10.0236 52.408 10.6465 52.1719 10.9934 51.7785 10.5033 51.3913 10.4456 50.7237 10.1466 50.3128 9.52702 49.4611 9.34863 49.246 10.6033 49.1673 11.0774 49.1376 11.1762 48.4192 10.852 47.9945 10.4552 47.5268 10.0221 47.0904 9.55651 46.6895 8.91386 46.0777 8.20317 45.4877 9.29669 44.6579 9.44325 44.5465 9.54115 44.3838 9.57026 44.2032 9.59936 44.0226 9.55747 43.8379 9.45321 43.6869c-2.14144-2.3357-1.34087-5.1868-1.38792-7.8526C8.02673 33.6522 8.23253 33.5695 7.28554 32.7336 6.28339 31.8489 6.37975 31.1926 7.34148 30.4063 7.59644 30.1978 8.36595 29.9054 7.63856 29.4177 7.38486 29.2476 6.91636 29.3906 6.5459 29.3906c-.77948-1.4395-2.65012-2.6652-.92148-4.5962C4.84503 24.0379 5.26791 22.9074 4.72072 22.0453 4.12904 21.1128 3.94302 20.1321 5.10917 19.4798 5.22082 19.6005 5.35646 19.6972 5.50759 19.7637 5.53518 19.7785 5.65658 19.6224 5.40161 19.3238 5.62618 19.3955 5.53735 19.195 5.38582 19.1223 5.30692 19.0765 5.21317 19.0627 5.12418 19.0837c-1.54403-1.3302-2.65231-2.5479-2.30876-4.4958C2.89577 14.3593 2.90854 14.1127 2.85222 13.8771 2.79589 13.6415 2.67282 13.4267 2.49743 13.2578 1.68865 12.5775 2.12555 12.0027 2.73816 11.4988 3.62717 10.7676 3.80001 10.3129 2.36623 10.1706 1.93672 10.128 2.01299 9.5203 2.11452 9.22262 2.30008 8.67865 2.99839 8.98512 3.33317 8.68166 3.82278 8.23789 3.07761 8.19204 3.02366 7.91464 2.85099 7.02695 3.67733 7.58735 3.87668 7.34733 4.7905 6.2471 6.23539 6.45166 7.38971 5.97589 8.88927 5.35789 9.52856 5.94982 9.4719 7.6324 9.43728 8.66075 10.3902 9.84907 10.1539 10.1891 9.23929 11.5057 10.2771 12.5645 10.1847 13.6764 10.0827 14.9037 9.2622 16.1272 11.4043 16.2267 11.4637 16.2245 11.5222 16.2418 11.5707 16.2759 11.6192 16.31 11.6549 16.3589 11.6724 16.4151 11.6898 16.4714 11.6881 16.5317 11.6674 16.5868 11.6466 16.642 11.6081 16.6888 11.5577 16.72 9.97912 17.8637 12.0678 18.7199 11.8209 19.8699 11.6368 20.8851 11.3791 21.8858 11.0498 22.8644 10.627 24.0101 12.0442 24.8953 11.8057 26.2175c-.302 1.048-.2044 2.1691.2743 3.1507C12.8745 30.6995 12.4594 32.1466 12.3489 33.546 12.299 34.1778 10.9309 33.33 11.2204 34.3071 11.3522 34.5737 11.5476 34.8046 11.7898 34.9799 12.0319 35.1551 12.3136 35.2695 12.6104 35.3132 12.8477 35.365 13.072 35.4634 13.2701 35.6026 13.4682 35.7418 13.636 35.9189 13.7636 36.1235 13.8911 36.3281 13.9758 36.5559 14.0127 36.7935 14.0495 37.0311 14.0376 37.2735 13.9779 37.5065 13.8227 38.6831 14.2739 39.9135 13.681 41.0493 13.5445 41.3108 13.1226 41.4145 13.5443 41.843 14.7605 43.0788 14.5174 44.8483 15.0805 46.3341 15.3029 46.9208 14.5779 47.9155 15.9536 47.8983 16.0334 47.8973 16.2483 48.4145 16.1812 48.484 15.057 49.6502 16.1082 50.9174 16.342 51.8909 16.5372 53.0392 16.4682 54.2163 16.14 55.3346 15.7759 57.2355 17.7779 57.4794 18.2746 58.7397 18.3295 58.8787 19.0009 58.7844 19.2847 58.0713 19.3587 58.0696 19.4312 58.0507 19.4964 58.0162 19.647 57.9071 19.7635 57.7582 19.8324 57.5866 19.8473 57.5593 19.6894 57.4393 19.3873 57.6915 19.4509 57.497 19.307 57.5446 19.22 57.659 17.6599 57.346 18.2957 55.935 18.6322 55.4138 19.3489 54.3038 18.9166 54.429 18.0509 54.307 17.6194 54.2461 17.7694 53.66 18.1164 53.6536 19.4161 53.6299 19.3156 53.1005 18.4645 52.6041 17.4092 51.9886 18.1451 51.4729 18.5094 50.7178 18.5936 50.7303 18.6796 50.7146 18.7537 50.6731 18.9044 50.5641 19.0207 50.4152 19.0895 50.2436 19.1046 50.2163 18.9466 50.0963 18.6446 50.3484 18.7172 50.1263 18.5145 50.2142 18.441 50.364 18.4355 50.3795 18.4309 50.3953 18.4271 50.4112 17.4796 50.6827 16.5497 50.7655 17.0925 49.5067 17.3109 49.0002 17.5191 48.4851 17.7428 47.993 17.9314 47.5215 18.0129 47.0147 17.9815 46.5086 17.9501 46.0025 17.8065 45.5094 17.561 45.0642 17.4302 44.7408 16.6118 44.5295 17.362 44.1016 17.5786 43.9781 17.9089 44.04 18.3891 44.1778 18.3862 44.2546 18.4043 44.3306 18.4413 44.3981 18.5517 44.5471 18.7023 44.6622 18.8758 44.7304 18.9033 44.7452 19.0248 44.589 18.7697 44.2904 18.9942 44.3621 18.9054 44.1616 18.7539 44.0889 18.7206 44.0753 18.6859 44.0653 18.6504 44.0591 18.2904 43.175 19.001 42.1902 17.686 41.8739 17.4178 40.6202 18.1809 39.2855 17.2177 38.0486 16.702 37.3864 17.7263 37.1972 18.0306 36.8066 18.4638 36.2505 18.7037 35.4743 18.0634 35.3491 16.3353 35.0112 16.7398 34.3546 17.5936 33.5361 18.4206 32.7434 16.3446 32.2851 17.3982 31.5108 18.0561 31.0272 16.3917 30.5606 17.4433 29.9149 18.0668 29.532 17.621 28.5664 17.6738 27.8666 17.7284 27.1424 17.686 26.411 17.686 25.6828V21.3132C17.8913 21.2326 18.2473 21.1858 18.2749 21.0654 18.3758 20.6256 18.047 20.5527 17.686 20.5789 17.7254 18.8338 17.2694 16.9663 19.1509 15.7249c.349-.2302-.279499999999999-.7591-1.014-1.1222C17.7206 14.3968 16.7979 14.2227 17.3051 13.2128 18.0859 11.6586 17.6458 9.97979 17.5437 8.34976 17.5377 8.25316 17.1522 8.17979 16.9433 8.09561V5.89246C17.1486 5.81182 17.5046 5.76502 17.5323 5.64459 17.6332 5.20486 17.3043 5.13198 16.9433 5.15814 16.9851 4.2281 16.7566 3.32206 17.6918 2.52722c1.7548-1.49146-.1585-.87234-.6862-1.04092C16.7888 1.41707 16.4559 1.40594 16.3789 1.26213 16.1589.850749 16.6457.735012 16.8366.507581 16.9302.35505 17.0616.228693 17.2184.140491 17.3752.0522881 17.5522.00516302 17.7326.00358654c1.3516.03989016 2.7066.05137396 4.0576.00247071C22.2152-.0298317 22.638.0947003 22.9739.354615 23.3098.61453 23.5337.990559 23.6007 1.40711 24.2038 3.89202 25.6795 5.91442 26.8409 8.12089 27.6284 9.61716 28.4158 11.1399 29.3362 12.5474 29.8271 13.2979 28.2613 13.4592 29.118 13.8309c.6721.291399999999999 1.45.2765 1.1897 1.3033C30.1235 15.8611 30.9445 16.1334 31.0259 16.6592 31.2689 18.2282 32.2746 18.3884 33.8049 18.7025 33.378 18.9337 32.9725 19.2355 32.5527 19.4903 32.8957 19.8295 33.3286 20.5054 33.5647 20.4438 33.9223 20.3871 34.2437 20.1954 34.4614 19.9091 34.679 19.6227 34.7758 19.2641 34.7315 18.9086 35.0646 19.062 34.6227 18.3759 34.408 18.4395 34.3887 18.4452 34.3709 18.4559 34.3518 18.4621 34.1211 17.6941 35.7817 16.9722 33.7503 16.8831 33.4124 16.8683 33.3336 16.6049 33.6035 16.1811c1.1358-1.7843 2.0502-3.6712 4.3261-4.4521C39.6247 11.1473 39.8165 11.0313 40.827 12.2549 41.0494 12.5242 41.3991 12.8048 41.4208 13.0996 41.4743 13.8258 41.3723 14.563 42.1369 15.0147 41.0179 15.7912 42.5916 16.5912 42.1365 17.2832 41.8139 17.7736 41.5114 17.9118 41.9795 18.6398 42.3807 19.1479 42.6735 19.7312 42.8403 20.3544 43.0071 20.9776 43.0444 21.6278 42.9499 22.2657 42.6077 23.7968 44.7994 24.1171 44.6601 25.5869l1.9901 4.8046C46.2571 31.6888 47.212 32.6177 47.6658 33.6379 48.2302 34.907 49.0926 36.0389 48.8878 37.5399 48.8399 37.891 48.761 38.4134 48.9511 38.5929c1.3947 1.3155 1.23 3.1803 1.7798 4.7794.8474 2.4642 2.6056 4.5885 2.8692 7.243C53.7343 51.9656 55.6329 53.0213 54.24 54.6768 54.0622 54.8882 54.8164 55.782 55.007 56.3994 55.3372 57.4688 57.1668 58.1086 55.8165 59.7246 55.3794 60.2478 56.5563 60.7039 56.9578 61.2162 57.4626 61.8603 58.2831 62.268 57.4028 63.3167 57.168 63.5965 57.647 64.7872 58.1136 65.246 58.8084 66.0345 59.266 66.9997 59.4347 68.0322 60.2353 70.8588 61.3156 73.6072 62.219 76.4073 62.347 76.804 62.4529 77.048 62.8461 77.1167 63.2379 77.1852 63.6834 77.0389 63.7055 76.6811 63.7851 75.3951 65.002 75.0098 65.618 74.159 66.1445 73.4318 66.272 72.8776 65.122 72.7047 64.8485 72.6635 64.2922 72.6618 64.7018 72.135 65.1128 71.6922 65.3409 71.113 65.3409 70.5118 65.341 69.9107 65.1129 69.3314 64.7019 68.8886 64.2922 68.3615 64.8491 68.3856 65.1224 68.3164 65.5215 68.2154 66.2839 67.8095 65.5977 67.7011 63.6032 67.3863 64.3682 65.8182 64.5872 65.2415 64.9256 64.3505 65.3919 63.5211 65.1904 62.5785 65.0044 61.7083 66.0476 60.7499 65.695 60.471 64.5388 59.557 66.1023 58.6826 65.6234 58.1497 64.8183 57.2538 66.2339 57.1054 66.005 56.3864 65.9017 55.6632 65.882 54.9308 65.9462 54.2032 65.952 54.1127 65.9357 54.0221 65.8987 53.9391 65.8617 53.8561 65.8051 53.7831 65.7336 53.7262 65.6622 53.6693 65.578 53.6302 65.4881 53.6122S65.3052 53.5978 65.217 53.6226C65.217 53.7318 65.217 53.841 65.2171 53.9502 65.0705 54.0632 64.8855 54.2973 64.7843 54.2661 64.4971 54.1774 64.4489 53.9552 64.6448 53.8337 64.8275 53.7436 65.0193 53.6728 65.217 53.6226V52.8883C65.4223 52.8077 65.7783 52.7609 65.8059 52.6405 65.9068 52.2007 65.578 52.1279 65.217 52.154 66.15 50.9825 65.7433 49.1476 67.2666 48.2171 67.5649 48.0349 67.0624 47.71 66.7045 47.7544 66.2367 47.8123 65.8602 47.4403 65.9944 47.1928 66.6209 46.0373 66.5686 44.7421 66.9338 43.5547 67.1065 42.9935 67.727 44.5931 68.1393 43.6978 68.2838 43.107 68.2983 42.4925 68.1818 41.8957 68.1516 41.2037 68.5935 41.1199 69.1161 41.1422 70.6066 41.2056 72.322 40.6528 72.7534 43.0086 72.9166 43.9001 73.4981 42.1818 73.9788 42.8515 74.235 43.2085 74.2602 43.7342 74.5318 44.0722 74.8725 44.4965 75.0445 44.899 74.6996 45.3237 74.4075 45.6832 74.0374 45.8519 74.565 46.3888 75.2366 47.0722 76.6627 47.0049 76.6285 48.3836 76.7154 48.3635 76.828 48.3711 76.8855 48.3192 77.7138 47.5707 78.5965 46.6371 78.1314 45.5568 77.6707 44.4868 77.6988 43.7749 78.5241 43.0354 77.5993 42.2083 78.2528 40.8503 77.7504 40.1459 77.2468 39.3461 77.0185 38.4066 77.0998 37.4678 78.3417 37.0572 78.9784 36.4327 77.6179 35.4421 76.779 34.8314 78.2381 33.8473 77.1537 33.3757c1.3134-1.3194 1.1207-3.8715 3.5685-4.2625C81.8609 27.53 82.7867 28.2449 83.6834 29.4217 83.519 29.4616 83.3605 29.522 83.2116 29.6015 83.0157 29.7229 83.064 29.9452 83.3512 30.0338 83.4524 30.065 83.6373 29.8309 83.784 29.5542 84.5132 29.3339 84.3104 30.0568 84.5663 30.291 85.2764 30.9409 84.5543 31.659 84.8083 32.1646 85.2233 32.7689 85.7376 33.3004 86.3298 33.7371 86.8561 34.2297 86.9795 34.735 86.3944 35.2411 86.0488 35.54 86.1651 35.7031 86.3864 36.0372 86.8357 36.6921 87.2005 37.4001 87.4723 38.1445 87.6989 38.8036 87.1154 39.9024 87.7363 40.177 89.0512 40.7586 86.6188 41.6958 88.0506 42.0537 87.9193 42.3581 87.8639 42.6893 87.8889 43.0193 87.914 43.3493 88.0188 43.6686 88.1945 43.9502 88.8276 45.15 90.029 46.6584 87.5431 47.3963 87.4624 47.4202 87.2395 48.3766 87.9834 48.3269 88.3108 48.305 88.4383 47.6187 89.0529 48.1398 90.3343 49.2266 91.8027 50.0985 92.179 51.9408 92.2194 52.1391 92.6103 53.2141 93.4242 52.5272 93.882 52.1409 94.5397 51.6379 94.113 51.0522 93.5837 50.3259 93.0793 49.9451 94.4931 49.9222 94.843 49.9166 95.1209 49.285 94.8995 49.0923 93.6227 47.9809 95.9313 46.5194 94.4805 45.4639 93.9235 45.0586 94.456 44.8668 94.7221 44.8275 96.6348 44.5445 96.3862 43.1206 96.4188 41.8153 96.4301 41.3609 96.1828 40.5818 96.7147 40.5277 97.8497 40.4125 98.2758 39.4963 99.0362 38.9712 99.0715 38.9468 99.395 39.2708 99.5364 39.4664 100.191 40.372 101.321 40.534 102.193 41.0988 102.56 41.3359 103.25 41.2386 103.072 41.8947 102.724 43.1759 103.864 44.0652 103.855 45.2521 103.851 45.8178 103.531 46.5362 104.163 46.9261 104.503 47.1359 104.583 46.0225 105.188 46.5226 105.489 46.7362 105.751 47 105.961 47.3022 106.306 47.903 105.789 48.6905 106.463 49.3083 106.798 49.6156 107.792 49.8395 107.272 50.5489 106.152 52.0759 108.07 51.04 108.132 51.596 108.153 51.7882 108.246 51.9246 107.963 52.1213 107.641 52.3441 107.481 52.6842 107.935 52.8639 108.296 52.9359 108.666 52.9443 109.029 52.8886 108.974 52.83 108.973 52.7179 109.047 52.5667 109.121 52.4169 109.323 52.329 109.467 52.2139 109.553 52.2989 109.711 52.419 109.696 52.4462 109.627 52.6178 109.51 52.7667 109.36 52.8758 109.206 52.9501 109.092 52.9496 109.033 52.8942 108.697 53.7725 109.553 54.2602 109.742 55.1022 109.556 55.1483 109.376 55.2155 109.205 55.3023 109.009 55.4237 109.058 55.646 109.345 55.7347 109.446 55.7659 109.631 55.5318 109.778 55.255 110.211 55.1736 110.55 54.872 110.494 54.5706 110.154 52.7435 111.372 51.4459 112.006 49.951 112.76 49.5514 114.117 49.5015 112.814 48.0943 112.405 47.652 112.816 47.0445 113.677 46.9953 116.976 46.8065 117.34 46.9025 120.167 49.21 120.116 49.15 120.115 49.0421 120.187 48.8952 120.261 48.7453 120.464 48.6575 120.607 48.5423 120.693 48.6274 120.851 48.7474 120.836 48.7747 120.767 48.9463 120.651 49.0952 120.5 49.2042 120.352 49.2758 120.244 49.275 120.183 49.2256 121.043 50.3332 122.044 50.1987 123.105 49.5434 121.099 48.0056 124.312 48.8692 124.052 47.5388 123.724 45.8597 126.273 46.7657 127.09 45.7156 127.122 45.6751 127.571 45.8333 127.574 45.9077 127.632 47.4984 129.181 47.9427 129.976 48.9574 130.613 49.7709 130.921 51.1427 132.493 50.7688 132.618 50.7389 132.81 51.1921 133.015 51.2422 133.843 51.4441 133.142 52.8793 134.037 52.6601 134.483 52.5508 134.93 51.5599 134.975 50.9396 135.039 50.0448 135.691 49.7128 136.17 49.2203 136.537 48.8442 136.261 48.7128 136.108 48.4165 135.872 47.9566 134.782 47.8489 135.328 47.1687 135.554 46.9454 135.825 46.7734 136.125 46.6648 136.424 46.5561 136.744 46.5134 137.062 46.5396 137.436 46.5863 137.666 47.073 138.137 46.5421 138.709 45.9619 139.316 45.4166 139.955 44.9091 140.534 45.8292 141.466 45.5434 142.284 45.5302 143.181 45.5156 143.248 46.0197 143.202 46.69 143.169 47.1693 143.132 47.8006 143.826 47.7267 145.989 47.4962 145.742 49.7416 146.87 50.5939 147.423 51.0119 147.36 52.3903 147.897 52.6283 148.733 52.9994 148.956 53.9452 149.424 54.1206 150.182 54.4041 149.765 53.1152 150.395 52.6651 151.439 51.8052 152.415 50.8686 153.316 49.8635 153.98 49.2159 152.961 47.4543 154.841 47.618 154.867 46.3966 156.003 45.8969 156.58 45.0344 157.036 44.2484 157.704 43.6028 158.509 43.1692 159.314 42.7356 160.224 42.5309 161.14 42.5779 162.327 42.5411 162.676 42.9813 162.506 44.0377 162.435 44.4785 162.679 44.6939 163.056 44.8096 165.155 45.4532 166.355 47.098 167.602 48.7203 168.167 49.3684 168.775 49.9785 169.422 50.5463 169.947 51.0648 170.43 51.9416 171.006 52.0058 171.645 52.0771 171.26 50.7043 172.045 50.4412 172.818 50.1886 173.507 49.7345 174.041 49.1266 174.575 48.5188 174.933 47.7798 175.078 46.9874 175.315 45.9263 176.219 46.1689 176.709 45.94 177.964 45.3541 176.189 44.3702 177.048 44.1252 177.847 43.8974 178.933 44.3757 179.593 44.012 180.828 43.3311 181.851 43.0878 183.086 43.9029 183.192 43.9726 184.039 42.9 184.012 44.1433 183.988 45.2424 184.298 45.7031 185.442 45.5552 186.326 45.4408 186.962 45.4952 187.158 46.7247 187.441 48.5006 189.502 49.2618 190.045 51.0336 190.242 51.6761 192.268 51.595 192.989 51.0022 193.556 50.5352 193.982 49.8815 194.585 49.4788 195.555 48.8315 195.665 47.1923 196.826 47.0881 198.314 46.9546 198.695 45.564 199.744 45.1475 201.157 44.6341 202.626 44.2867 204.121 44.1126 204.931 43.9962 205.156 45.1112 205.804 45.3535 206.591 45.6472 206.291 47.2257 206.753 46.783 207.707 45.8703 207.935 47.0402 208.508 47.051 209.438 47.0687 210.821 46.4032 210.922 48.2316 210.941 48.5665 211.175 48.3345 211.436 48.248 212.472 47.8276 213.599 47.67 214.712 47.7893 215.826 47.9087 216.892 48.3014 217.814 48.9316 219.795 50.175 222.061 51.1517 224.086 52.4587 224.261 52.5718 224.436 52.6858 224.61 52.7994 225.526 50.8905 226.877 53.8847 227.975 52.4906 228.556 51.9768 229.306 51.6885 230.085 51.6789 230.09 51.7 230.096 51.7207 230.103 51.741 230.214 51.8899 230.364 52.005 230.538 52.0731 230.565 52.0879 230.687 51.9318 230.432 51.6332 230.638 51.6991 230.576 51.5389 230.448 51.4554 230.528 50.3668 231.542 50.2894 232.253 50.0253 233.008 49.7444 233.826 50.0374 233.959 48.7733 234.02 48.192 234.495 48.7828 234.526 49.0317 234.619 49.7773 234.715 50.3004 235.463 49.4162 235.622 49.2294 235.964 49.0662 235.962 48.896 235.935 47.062 236.778 48.3698 237.361 48.4598 238.258 48.5981 239.143 50.0954 240.124 48.529 240.22 48.3764 240.809 48.3575 241.097 48.713 242.463 50.3972 244.722 50.1263 246.401 51.0824 247.284 51.5858 247.645 50.1061 248.145 50.7159 248.947 51.6942 249.504 50.6869 250.163 50.7019 251.002 50.721 251.213 51.6735 251.849 51.9755 252.223 52.1762 252.642 52.2839 253.067 52.2893 253.493 52.2947 253.914 52.1977 254.294 52.0067 255.68 51.0877 256.934 51.4484 258.355 51.7685 259.398 52.0035 260.528 51.4884 261.583 51.3049 262.453 51.1535 262.748 52.6787 263.711 51.6654 264.302 51.0434 265.349 51.4159 266.178 51.4461 267.009 51.4606 267.823 51.2135 268.502 50.7406 268.771 50.5886 269.086 50.5349 269.391 50.589 269.696 50.643 269.973 50.8014 270.172 51.0364 270.526 51.5036 271.019 51.4191 271.497 51.4194 272.411 51.4201 273.298 49.785 274.237 51.3774 275.045 50.3143 276.211 50.7531 277.249 50.6925 278.155 50.6397 279.064 49.7188 279.971 50.6854 281.959 49.3025 284.222 50.0142 286.337 50.044 287.322 50.0578 288.16 50.5905 288.883 49.4952 289.09 49.2709 289.37 49.1252 289.674 49.0833 289.978 49.0414 290.287 49.106 290.548 49.2659 291.346 50.1861 292.329 50.0026 293.263 49.9275 294.389 49.8369 295.355 50.5779 296.293 50.564 297.088 50.5522 297.952 49.9422 298.953 49.9146 301.008 49.8579 302.847 51.1614 304.955 50.7069 305.728 50.5401 306.709 50.9744 306.69 49.5391 306.685 49.1289 307.412 49.1186 307.902 49.4024 308.65 49.9277 309.473 50.3396 310.344 50.6244 310.906 50.7496 311.573 49.7937 312.265 50.5777 312.726 49.8682 313.039 50.3191 313.605 50.5522 314.388 50.8746 315.169 51.5178 316.324 50.7646 317.339 50.102 318.676 51.3183 319.957 51.0767 320.243 51.0229 320.603 51.4253 320.908 51.3969 322.089 51.2867 323.271 51.6857 324.473 51.0595 325.489 50.5296 326.201 52.2374 327.28 51.8543 328.442 51.4417 329.38 52.5957 330.497 52.154 331.264 53.7889 332.404 51.3928 333.12 52.356 334.127 53.7109 334.758 52.1949 335.569 52.1373 336.605 52.0636 337.525 53.0137 338.693 52.1961 339.857 51.3813 341.115 52.859 342.564 52.3212 343.667 51.9115 345.205 51.624 346.283 52.8528 347.773 52.0659 349.596 52.5313 351.006 51.8203 352.308 51.1633 353.817 51.8035 355.048 50.7561 355.431 50.5681 355.855 50.4772 356.282 50.4918 356.709 50.5064 357.126 50.6258 357.495 50.8395 358.567 51.6273 358.398 51.1612 358.661 50.3177 358.856 49.6918 359.879 51.1094 360.491 49.9837 360.68 49.6064 360.947 49.2725 361.275 49.0036 361.603 48.7346 361.984 48.5366 362.394 48.4221 363.161 48.2221 363.676 47.7593 364.351 48.6299 364.762 49.1596 365.146 49.8913 366 49.951zM19.0641 40.1438C18.9781 39.9899 18.889 39.8303 18.7999 39.6707 18.7174 39.7523 18.5541 39.8517 18.5676 39.9121 18.625 40.0849 18.703 40.2504 18.7999 40.405L19.0641 40.1438zM9.5165 40.7721C9.43392 40.6905 9.3514 40.609 9.25222 40.5109 9.09657 40.5959 8.93519 40.6841 8.77377 40.7722 8.85628 40.8538 8.95679 41.0152 9.0179 41.0018 9.19271 40.9451 9.36009 40.868 9.5165 40.7721v0zm2.1208 15.3146C11.5382 55.9887 11.4556 55.9071 11.3731 55.8255 11.2763 55.9802 11.1983 56.1456 11.1409 56.3185 11.1274 56.3788 11.2906 56.4782 11.3731 56.5598 11.4622 56.4003 11.5513 56.2406 11.6373 56.0867v0zM12.3801 41.6125 12.1158 41.1393C12.0333 41.2209 11.87 41.3203 11.8836 41.3807 11.941 41.5536 12.0189 41.7191 12.1159 41.8737L12.3801 41.6125zm4.5631 18.2517C16.8607 59.7826 16.7602 59.6211 16.699 59.6346 16.5242 59.6913 16.3569 59.7684 16.2005 59.8643 16.283 59.9459 16.3834 60.1073 16.4446 60.0938 16.6195 60.0372 16.7869 59.9601 16.9432 59.8642v0zm.6356 25.5949C17.4795 85.361 17.3971 85.2795 17.3144 85.1979 17.2176 85.3525 17.1397 85.518 17.0823 85.6908 17.0687 85.7513 17.232 85.8506 17.3145 85.9322 17.4037 85.7727 17.4928 85.6131 17.5788 85.4591v0zm1.4853-15.9428C18.9781 69.3622 18.889 69.2026 18.7999 69.0431 18.7174 69.1247 18.5541 69.2241 18.5677 69.2844 18.625 69.4573 18.703 69.6228 18.8 69.7774 18.8825 69.6959 18.965 69.6143 19.0641 69.5163v0zM19.1596 61.3632C18.9856 60.9861 18.7598 61.0753 18.4144 61.3128 17.5766 61.8891 17.6264 62.6898 17.7063 63.5086 17.7173 63.6208 18.0042 63.7067 18.1467 63.7944 18.718 63.6332 19.4327 61.9548 19.1596 61.3633V61.3632zM25.2517 9.07105C25.3091 9.24389 25.387 9.40936 25.4839 9.56396 25.5664 9.48236 25.7297 9.38305 25.7162 9.32256 25.6589 9.1497 25.5809 8.98423 25.4839 8.82969 25.4015 8.9113 25.2381 9.01064 25.2517 9.07108V9.07105zM25.3218 17.4332C24.8676 16.6604 24.6212 15.7713 24.236 14.9547 24.0382 14.5354 23.5406 14.6234 23.2552 14.7423 22.7686 14.9451 23.0259 15.2768 23.3149 15.4869 23.673 15.7472 23.4739 16.2277 23.6525 16.4405 24.4788 17.425 25.0512 18.2188 23.1251 18.539 22.7173 18.6068 22.7876 19.2306 22.9382 19.4849 23.0932 19.7224 23.3113 19.9133 23.5685 20.0368S24.1122 20.2116 24.3968 20.1851C24.9274 19.7314 25.4054 19.2209 25.822 18.6629 26.1031 18.2312 25.5625 17.8428 25.3218 17.4332v0zM42.9368 35.632C42.8543 35.5504 42.7537 35.3889 42.6926 35.4024 42.5178 35.4591 42.3505 35.5362 42.1941 35.632 42.2766 35.7136 42.3591 35.7951 42.4583 35.8932 42.614 35.8083 42.7754 35.7202 42.9368 35.632zm13.261 30.2126C56.1118 65.6907 56.0227 65.5311 55.9335 65.3715 55.851 65.4531 55.6878 65.5525 55.7014 65.6129 55.7587 65.7858 55.8366 65.9513 55.9335 66.1059L56.1978 65.8446zm7.7113 12.775C63.9602 78.6128 64.01 78.5984 64.0567 78.5767 64.2073 78.4676 64.3238 78.3187 64.3927 78.1471 64.4058 78.1232 64.2864 78.0284 63.9091 78.6196v0zM63.7316 78.7109V78.5954C63.7449 78.6077 63.7695 78.6071 63.7882 78.6136 63.8907 78.432 64.0134 78.2042 64.1636 77.9147 64.0202 78.0299 63.8175 78.1177 63.7439 78.2676 63.6693 78.4196 63.67 78.5325 63.7261 78.5908 63.5302 78.6403 63.3402 78.7106 63.1594 78.8002 62.9635 78.9217 63.0118 79.1439 63.299 79.2326 63.3687 79.2541 63.4815 79.1417 63.7316 78.7108V78.7109zm1.0869 2.0575C64.9282 80.7609 65.0186 80.4773 65.0906 80.3629 64.8726 79.8577 64.4569 80.0861 64.1282 80.0825 64.037 80.0815 63.8245 80.4327 63.8699 80.5322 64.0616 80.9533 64.4888 80.7911 64.8185 80.7684v0zM65.1099 81.9994C65.0239 81.8455 64.9348 81.686 64.8457 81.5264 64.7631 81.608 64.5998 81.7074 64.6134 81.7678 64.6708 81.9406 64.7487 82.1061 64.8457 82.2607L65.1099 81.9994zM68.0806 72.2416C67.9814 72.1436 67.8988 72.062 67.8163 71.9803 67.7194 72.135 67.6415 72.3005 67.5841 72.4733 67.5705 72.5337 67.7338 72.6331 67.8163 72.7147 67.9054 72.5551 67.9946 72.3955 68.0806 72.2416v0zM75.5072 48.9554C75.4213 48.8016 75.3322 48.642 75.243 48.4825 75.1605 48.5641 74.9973 48.6634 75.0108 48.7238 75.0682 48.8966 75.1461 49.0621 75.243 49.2167L75.5072 48.9554zM84.028 49.0792C84.2028 49.0226 84.3702 48.9455 84.5265 48.8496 84.444 48.768 84.3434 48.6065 84.2824 48.62 84.1076 48.6767 83.9402 48.7538 83.7839 48.8496 83.8664 48.9312 83.9668 49.0926 84.028 49.0792v0zM85.1236 51.1642C85.1985 50.734 84.8702 50.633 84.5153 50.694 84.303 50.7305 83.9493 50.826 83.9294 50.9408 83.855 51.3705 84.1778 51.4504 84.5397 51.4209 84.7436 51.3369 85.1035 51.2795 85.1236 51.1642zM100.836 50.8641C100.842 50.9134 100.857 50.9615 100.878 51.0067 100.988 51.1556 101.139 51.2708 101.312 51.3389 101.337 51.3518 101.432 51.2336 100.836 50.864V50.8641zM101.547 51.1125C101.431 50.9707 101.342 50.7701 101.191 50.6975 101.038 50.6242 100.924 50.6248 100.865 50.6793 100.914 50.6203 100.916 50.5104 100.87 50.3422 100.819 50.0249 100.749 49.7107 100.661 49.4014 100.568 49.1762 100.307 49.2255 100.196 49.5248 100.067 49.8741 100.072 50.2188 100.816 50.7043 100.829 50.6982 100.848 50.6987 100.858 50.6892 100.85 50.6975 100.852 50.7132 100.846 50.7234 101.072 50.8671 101.306 50.997 101.547 51.1124V51.1125zM106.781 56.0056C106.707 55.6871 106.591 55.3797 106.435 55.0913L106.098 55.5964C106.045 55.7717 106.049 55.9591 106.109 56.132 106.17 56.3049 106.284 56.4545 106.435 56.5598 106.559 56.3741 106.8 56.1758 106.781 56.0056v0zm51.27-4.2187L157.573 51.5256C157.474 51.6237 157.391 51.7053 157.309 51.7868 157.465 51.8826 157.632 51.9597 157.807 52.0164 157.868 52.0299 157.969 51.8684 158.051 51.7868V51.7869zM186.166 52.4152C186.067 52.3171 185.984 52.2355 185.902 52.154 185.805 52.3086 185.727 52.4741 185.669 52.6469 185.656 52.7074 185.819 52.8067 185.902 52.8883 185.991 52.7287 186.08 52.5691 186.166 52.4151V52.4152zm14.218-5.7685C200.301 46.5651 200.201 46.4036 200.139 46.4171 199.965 46.4738 199.797 46.5509 199.641 46.6467 199.724 46.7283 199.824 46.8897 199.885 46.8763 200.06 46.8197 200.227 46.7426 200.384 46.6467v0zm50.362 6.7345C250.689 53.2084 250.611 53.0429 250.514 52.8883 250.432 52.9699 250.268 53.0692 250.282 53.1297 250.339 53.3026 250.417 53.468 250.514 53.6226 250.597 53.541 250.76 53.4416 250.746 53.3812v0zm59.446 1.4486C310.106 54.6761 310.017 54.5165 309.928 54.3569 309.846 54.4385 309.682 54.5379 309.696 54.5983 309.753 54.7711 309.831 54.9365 309.928 55.0911 310.011 55.0095 310.093 54.9279 310.192 54.8298v0zm53.58-5.2459C363.616 49.4881 363.448 49.411 363.273 49.3543 363.212 49.3408 363.112 49.5023 363.029 49.5839L363.508 49.8452C363.607 49.7471 363.689 49.6655 363.772 49.5839v0zM18.6502 44.0589C18.4947 44.0157 18.3969 44.0595 18.389 44.1777 18.5084 44.2119 18.6299 44.2476 18.7695 44.2902 18.722 44.2173 18.682 44.1398 18.6502 44.0589v0zM63.7316 78.5955V78.5891L63.7261 78.5908 63.7316 78.5955zM18.4101 93.058C18.3659 93.2162 18.4132 93.3163 18.5414 93.3179 18.563 93.1883 18.5976 93.0611 18.6445 92.9381 18.5604 92.9864 18.4873 93.0193 18.4101 93.058v0zM11.9604 62.0971C11.8923 62.1099 11.8234 62.118 11.7541 62.1214 11.6304 62.3819 11.7343 62.5151 11.9619 62.4532 11.9636 62.3183 11.964 62.1925 11.9604 62.0971v0zM18.4269 50.411C18.3568 50.5863 18.3945 50.6963 18.5092 50.7176 18.5677 50.5997 18.6131 50.4758 18.6445 50.3482 18.5722 50.3707 18.4996 50.3902 18.4269 50.411zm.7928 7.2478C19.2061 57.6736 19.194 57.6897 19.1835 57.7069 19.0732 57.9316 19.1279 58.0695 19.2846 58.0711 19.3335 57.9489 19.3679 57.8214 19.3872 57.6913 19.3262 57.683 19.2751 57.6698 19.2198 57.6588H19.2197zm66.7921-4.0362C84.5808 53.9669 85.552 55.1028 85.2692 55.8255 85.7643 55.5808 86.2594 55.336 86.7546 55.0912V54.3569C86.6526 54.3776 86.5471 54.3729 86.4474 54.3433S86.257 54.2602 86.1835 54.1874C86.1099 54.1146 86.0556 54.0249 86.0257 53.9264 85.9958 53.8278 85.991 53.7234 86.0119 53.6226H86.0118zM48.5359 53.6438C48.4367 53.6859 48.3501 53.7526 48.2843 53.8373 48.2186 53.922 48.1759 54.022 48.1604 54.1277 48.2143 54.439 48.3094 54.7419 48.4434 55.0285 48.5224 55.0076 48.5962 54.9711 48.6606 54.9214 48.725 54.8716 48.7787 54.8095 48.8183 54.7388 48.858 54.6682 48.8829 54.5903 48.8916 54.5099 48.9002 54.4296 48.8924 54.3483 48.8687 54.2709 48.7071 54.106 49.2318 53.5321 48.5359 53.6437V53.6438zM17.3435 41.8948C17.2443 41.937 17.1577 42.0036 17.092 42.0884 17.0262 42.1731 16.9836 42.2731 16.9681 42.3788 17.0219 42.69 17.117 42.9929 17.2511 43.2796 17.33 43.2586 17.4039 43.2222 17.4683 43.1724 17.5327 43.1226 17.5864 43.0606 17.626 42.9899 17.6657 42.9192 17.6906 42.8414 17.6992 42.761 17.7079 42.6806 17.7001 42.5993 17.6764 42.522 17.5148 42.3571 18.0394 41.7831 17.3435 41.8948zm94.0115 7.6285C111.323 49.6234 111.56 49.8062 111.674 49.9512 111.785 49.9511 111.895 49.9511 112.005 49.9511 111.955 49.7556 111.883 49.5659 111.792 49.3854 111.669 49.1915 111.444 49.2392 111.355 49.5233v0zM8.77372 51.0525 9.25204 51.3137C9.35131 51.2156 9.43379 51.134 9.51641 51.0525 9.36001 50.9567 9.19265 50.8796 9.01785 50.8229 8.95674 50.8094 8.85625 50.9709 8.77377 51.0525H8.77372zM43.1874 38.7844C43.6321 38.8842 43.7058 38.559 43.6794 38.2021H42.9367C43.0183 38.4051 43.0656 38.757 43.1874 38.7843V38.7844zM159.676 51.9126C159.662 51.973 159.825 52.0724 159.908 52.154 159.997 51.9945 160.086 51.8348 160.172 51.681 160.073 51.5829 159.99 51.5013 159.908 51.4197 159.811 51.5743 159.733 51.7397 159.676 51.9126zM64.628 52.4018C64.5271 52.8416 64.856 52.9145 65.217 52.8883V52.154C65.0117 52.2345 64.6557 52.2814 64.628 52.4018v0zM76.4489 37.04C76.4173 37.1401 76.6541 37.3229 76.7685 37.4679L77.0997 37.4678C77.0489 37.2723 76.9774 37.0827 76.8862 36.9021 76.7634 36.7083 76.5386 36.756 76.4489 37.04zM17.3144 55.0912C17.2253 55.2508 17.1362 55.4104 17.0502 55.5643 17.1494 55.6624 17.232 55.744 17.3144 55.8255 17.4114 55.6709 17.4893 55.5055 17.5467 55.3326 17.5603 55.2722 17.397 55.1728 17.3145 55.0912H17.3144zM65.217 55.4584C65.1344 55.3768 65.0339 55.2153 64.9728 55.2288 64.798 55.2855 64.6307 55.3626 64.4743 55.4584L64.7386 55.7196 65.217 55.4584zM219.121 55.3023C218.925 55.4238 218.973 55.646 219.261 55.7347 219.362 55.7659 219.547 55.5318 219.693 55.4188 219.693 55.3095 219.693 55.2003 219.693 55.0913 219.495 55.1414 219.304 55.2122 219.121 55.3023v0zM116.712 57.1421C117.157 57.2419 117.231 56.9168 117.204 56.5599H116.461C116.543 56.7628 116.59 57.1148 116.712 57.1421zM15.5496 4.73034C15.5181 4.8304 15.7548 5.01326 15.8692 5.15821 15.9797 5.15812 16.0901 5.15809 16.2005 5.15812 16.1497 4.96261 16.0781 4.77296 15.987 4.59234c-.1229-.193680000000001-.3477-.14599-.4374.138zM16.2005 5.15814C16.1796 5.25897 16.1844 5.36335 16.2143 5.46192 16.2442 5.56049 16.2984 5.65017 16.372 5.72294 16.4456 5.7957 16.5363 5.84928 16.636 5.87887 16.7356 5.90845 16.8412 5.91312 16.9431 5.89246V5.15814h-.7426zM104.718 62.1929C104.704 62.2533 104.868 62.3527 104.95 62.4343 105.039 62.2748 105.128 62.1152 105.214 61.9612L104.95 61.7C104.853 61.8546 104.775 62.0201 104.718 62.1929v0zm-30.4498 5.623C74.3256 67.9887 74.4035 68.1542 74.5004 68.3088L74.7647 68.0476C74.6788 67.8936 74.5896 67.734 74.5004 67.5745 74.418 67.6561 74.2546 67.7555 74.2683 67.8159H74.2682zM18.5357 95.0052 18.7999 95.4782C18.8824 95.3966 19.0456 95.2973 19.032 95.2369 18.9747 95.0641 18.8967 94.8986 18.7999 94.744 18.7174 94.8256 18.6349 94.9072 18.5357 95.0052v0zM6.11308 30.0338C6.21426 30.0651 6.39917 29.831 6.54581 29.7179 6.54571 29.6086 6.54569 29.4994 6.54572 29.3904 6.34796 29.4405 6.15614 29.5113 5.97348 29.6015 5.77758 29.7229 5.82586 29.9452 6.11308 30.0338zM27.6506 24.8937C27.7518 24.9249 27.9367 24.6908 28.0834 24.5778 28.0833 24.4685 28.0832 24.3593 28.0833 24.2502 27.8855 24.3004 27.6937 24.3712 27.511 24.4613 27.3151 24.5828 27.3634 24.805 27.6506 24.8937zM17.0969 20.8265C16.996 21.2663 17.3248 21.3391 17.6858 21.313V20.5787C17.4805 20.6592 17.1246 20.706 17.0969 20.8265v0zM1.34702 16.54 1.82548 16.8012 2.08971 16.54C1.93331 16.4441 1.76595 16.3671 1.59115 16.3103 1.53003 16.2969 1.42953 16.4584 1.34702 16.54zM800528e-9 14.2112C.0581817 14.3841.136126 14.5495.232997 14.7041L.497269 14.4429.232997 13.9699C.150511 14.0515-.0128096 14.1509 800528e-9 14.2112v0zM16.9433 8.42291C16.9432 8.31365 16.9432 8.20448 16.9432 8.0954 16.7454 8.14557 16.5536 8.21632 16.371 8.30647 16.1751 8.42794 16.2233 8.65018 16.5106 8.73885 16.6117 8.77008 16.7966 8.53599 16.9432 8.42291H16.9433z" fill="#007BFF"/></svg>