<svg version="1.1" id="Layer_1" xmlns="http://www.w3.org/2000/svg" xmlns:xlink="http://www.w3.org/1999/xlink"
        x="0px" y="0px" viewBox="0 0 300 400"  xml:space="preserve">
        <linearGradient _ngcontent-ng-c466950198="" id="SVGID_1_" gradientUnits="userSpaceOnUse" x1="168.5638"
            y1="194.127" x2="168.5638" y2="339.9449">
            <stop _ngcontent-ng-c466950198="" offset="0" style="stop-color: rgb(156, 201, 249);"></stop>
            <stop _ngcontent-ng-c466950198="" offset="0.1681" style="stop-color: rgb(136, 191, 249);"></stop>
            <stop _ngcontent-ng-c466950198="" offset="0.3283" style="stop-color: rgb(115, 179, 248);"></stop>
            <stop _ngcontent-ng-c466950198="" offset="0.4849" style="stop-color: rgb(86, 164, 247);"></stop>
            <stop _ngcontent-ng-c466950198="" offset="0.51" style="stop-color: rgb(67, 155, 250);"></stop>
            <stop _ngcontent-ng-c466950198="" offset="0.83" style="stop-color: rgb(49, 146, 249);"></stop>
            <stop _ngcontent-ng-c466950198="" offset="0.9225" style="stop-color: rgb(25, 133, 249);"></stop>
            <stop _ngcontent-ng-c466950198="" offset="1" style="stop-color: rgb(0, 123, 255);"></stop>
          </linearGradient>
          <path _ngcontent-ng-c466950198="" d="M219.511,297.509c-6.32-20.767-6.772-28.441-2.257-35.664c0,0-17.155,9.48-14.447,32.504
          c0,0-4.552-17.355,4.063-31.602c4.041-6.683-2.348-14.446-2.348-14.446c1.806,6.772-3.16,17.606-3.611,5.869
          c-0.452-11.737-8.126-24.604-8.126-24.604c9.48,32.278-0.451,35.1-0.451,35.1c4.732-10.448-6.941-38.599-6.941-38.599
          c1.298,13.205-1.411,15.236-1.411,15.236c-6.771-4.74-1.129-20.089-2.031-28.215c-0.903-8.126-5.327-18.961-5.327-18.961
          c1.264,20.993-13.995,22.572-10.835,44.693c0,0-5.418-13.092,0-26.635c0,0-20.767,28.441-5.869,62.3
          c0,0-15.8-13.092-10.834-37.47c0,0-14.898,20.315-5.418,38.373s-18.509,20.767-12.189-20.315c0,0-15.349,14.446-15.349,41.533
          c0,25.041,15.834,40.811,48.898,43.052c-16.783-1.609-24.83-10.028-24.83-23.158c0-14.654,8.304-22.469,8.304-22.469
          c-3.419,22.225,11.723,20.759,6.594,10.99c-5.129-9.769,2.931-20.759,2.931-20.759c-2.686,13.188,5.861,20.271,5.861,20.271
          c-8.06-18.317,3.175-33.703,3.175-33.703c-2.931,7.327,0,14.409,0,14.409c-1.709-11.967,6.545-12.822,5.861-24.178
          c0,0,2.393,5.861,2.882,10.257c0.488,4.396-2.564,12.7,1.099,15.264c0,0,1.465-1.099,0.763-8.243c0,0,6.315,15.229,3.755,20.881
          c0,0,5.373-1.526,0.244-18.989c0,0,4.152,6.96,4.396,13.31c0.244,6.35,2.931,0.488,1.954-3.175c0,0,3.457,4.2,1.27,7.815
          c-4.661,7.707-2.198,17.096-2.198,17.096c-1.465-12.455,7.815-17.584,7.815-17.584c-2.442,3.907-2.198,8.06,1.221,19.294
          c3.365,11.059-3.691,22.582-23.945,22.941c0.43,0.004,0.848,0.017,1.283,0.017C212.288,339.945,225.831,318.275,219.511,297.509z
          " style="fill: url(#SVGID_1_);"></path>
          <path _ngcontent-ng-c466950198=""
            d="M119.017,277.035c-1.706,5.528-2.887,12.061-2.887,19.571c0,25.041,15.834,40.811,48.898,43.052
          c-9.446-0.905-16.125-3.969-20.159-8.816c-2.05-1.508-4.378-3.343-7.069-5.599C120.122,310.422,119.025,277.3,119.017,277.035z"
            style="opacity: 0.1;"></path>
          <path _ngcontent-ng-c466950198="" d="M219.511,297.509c-2.562-8.417-4.159-14.684-4.853-19.641h-0.001c0,0-1.847,12.774,0,23.173
          c1.848,10.398,0.158,19.943-10.702,25.638c-3.755,1.968-7.387,3.982-10.991,5.84c-3.883,4.282-10.695,7.231-20.785,7.41
          c0.43,0.004,0.848,0.017,1.283,0.017C212.288,339.945,225.831,318.275,219.511,297.509z" style="opacity: 0.1;">
          </path>
      </svg>