<svg xmlns="http://www.w3.org/2000/svg" width="302" height="27" fill="none"><path fill="#e3f702" d="M142.3 10.4h.2-.2zm157.7.5c-1.8.8-2.7 3.4-5.3 3-1-.3.3 2.5-1.6 1-.8-.6-1.8-.4-2.8.3a2 2 0 01-1.4.3 2 2 0 01-1.2-.9.8.8.0 00-.8.0c-2 1.9-4 0-6.1-.2h.2l-.3-.7c-.1-.2-.4-.2-.5.2.0.0.2.3.6.5.2.4.3 1 .1 1.2-.6.8-.8-.1-1.2-.3-.6-.4-.3-1-.6-1.5-.7-1.2-2-1.2-3.4.0-.4.4-.9.4-.9.0.0-1.6-.5-1.3-1.3-.5-.6-.8-1.2-.8-1.8.0-.9-1.4-2.4-.7-3.6-1-.7-.1.5-2.6-1.6-1-1 .8-2-.5-2.9-1-1-.6-2.2-.1-2.7-.7-.8-.8-3 0-2.8-2 0-.3-.3-.6-.8-.1a11 11 0 01-3.7.6c-3-1.2-3-1.3-6 0-1.4.6-.7-.5-1-.8-.5-.9-.9.0-1.1.3-.5.5-.6 1.2-1 1.7-.3.2-.5-1.2-1.3-.5a7 7 0 01-1.6 1.3h-1.8c-1-.2-.8.7-1.2 1.1-1 1.3-4.4 1.7-6.6 1.2h-.8l-.6.6a9.3 9.3.0 01-6.5 4.2c-2.4.4-3.7 2.3-5.9 2.9.2 1.5-1 1.3-2 1.3s-2.2-.2-3 .6c-1.3-1.5-1.6.3-2.3.7a1.6 1.6.0 01-1.2.2c-1-.4-2.1.7-3 .4-1.4-.7-1.4.9-2.2 1a2 2 0 01-1.2.0c-1.7-1-2.8-1.1-3.9-.2-.8.7-1.8.8-2.5 1.4-.2.3-.5.5-1 .5l-1-.1c-2.2-1.7-4.2-.8-6 .4a2.3 2.3.0 01-2 .3c-1.4-2.5-3.4-1.2-5.2-1-3.5.5-6.6-.9-9.8-1.9-.2.0-.6-.3-.6-.5.0-1.6-.9-1.6-1.8-.7-.8.8-.8-1-1.6-.3-1.3 1.1-.7-.3-1-.6-.5-.6-.9-1.5-2-1.4-1 .1-1.3-.4-1.6-1.3-.3-.8-1.2-2.2-2.6-.8-.6.6-.7-.2-1-.4-.4-.3-.9-1-1.2-1-2.6.3-3.4-.8-2.9-3l-.6-.3-.3.7c0 .3-.4 1-.6.5-1-2.2-3.8-.7-5.1-2.3-1.5.9-2.4-.1-3.4-1a4.4 4.4.0 00-3.1-1 3 3 0 00-.3-.6c-.1-.2-.4-.2-.5.2.0.0.2.3.6.5-1.4 1-3.2 1-4.2-.1.3.0.6.0.7-.5.0.0-.4-.3-1 0 0-.5-.4-.3-.6.0v.2c-1.5.3-2.6.4-3.5.0-1.2-.4-1.7 1.5-3 .4-.4-.3-1.9.6-2.8 1.2-.4.3-1.3.0-2 0s-1 .2-1.2 1c-.1.7-.9 1.8-1.5 1.2-1-.9-1.2.1-1.7.3-.9.5-1.3-1.3-2-.4-.5.6.5 1.1.7 1.7.0.3-.8.8-1.2 1.2-1.5-2.2-3 .7-4.6.0-.8-.4-1.2.1-1.3 1 0 .1.0.3-.2.4l-.3.2a.8.8.0 01-.8-.2c-.7-.6-1-.7-1.6.0l-2 1.7-.9.8c-1.3-1.8-2.7-.2-4.1.0-1.8.1-3.7-.4-5.4.7-1 .7-1.5-1.4-2.3-.3-.4.4.0 1.6-1.1.5l-1.2-1.2c-.7-1-2-1.3-2.6-.7-1 1-2.3.1-3.1 1-.5.5-1.2.7-1.5.2-1.2-2-2.6-1-4.3-.8-1.9.3-4 .2-4.8-2a1 1 0 00-.5-.4c-1.2 1.1-2.5.5-4 .2-.9-.2-2-.7-3-.5-1.4.3-2.4-.6-3.4-1.1s-1.3-1-1.4.5c0 .4-.5.3-.9.0a1.8 1.8.0 00-1.3-.6 1.9 1.9.0 00-1.4.6c-.3.3-.4.4-.6.1-.1-.4.0-.8-.3-1.1-.5-.7-.6.0-1 .2-.6.4-.6-.2-.6-.5-.2-1.3-.9-1.2-1.7-.6-.4.3-.7.5-1 0 0-.4.0-.8.2-1.2h.3l.4-.5s-.2-.2-.6.0c.1-.2-.1.0-.2.1-.9.4-.9 1-1 1.4.0.4-.7.9-.7.3.0-1.6-1.2-1.1-2-1.5s-2.4-.4-2.4-1.7c-.2-2.1-1.2.8-2-.5C46 8.8 43 8.8 40.3 9c-1.3.0-2.5 1.4-3.7-.1-1.8 1.9-5-.5-6.6 2.1-.2.3-1.6-.7-2.1.4-.6 1.2-1.4-.4-2 0l-2.2 2c-.6.6-1.7-.2-2.4.6-.3.5-1.1.6-.3 1.6.6.7-.8.6-1 .5-1-.8-1.4 1.5-2.5.3-.2-.2-1.7.4-2.4.9-1.1.7-2.2.3-3.4.3-1 0-1.5 1.1-2.7.9-1-.2-2-.6-2.9.4-.2.3-.5.4-.6.0-.2-1-.4-1.8-1.5-.7-.2-.2-.4-.4-.4-.7.0-1 .2-1.9-1.5-1.8-.8.0-1.6-1.6-1-2 1.7-1.7 3.2-4 5.6-4.3 2.1-.2 3.2-2.4 5.4-2 .4.1 1.3-.7 1.6-1.3.6-1.6 2.5.2 3.2-1.2.7-1.4 2.5-1.1 3.6-1.8 1.2-.7 2.7.2 3.2-.5.9-1.2 1.7.4 2.3-.3.8-.8 2.4.2 3-1.1.2.2.5.3.5.5.2.7.0 1.7 1 .6.8-.9 1.3-1 2.4-.3.8.6 1.8-.2 2.7-.7.8-.5 1 1.4 2 .4.8-.7 1.9-.6 2.7.2.6.7.8-.6 1.2-.4.5.3.8.9 1.3 1.2 1 .7 2 1.4 3.5.6.5-.2 1.7.6 2.5 1.2 1 .6 1.6 2.3 3.1.7l.5.4c.2.0 4.3 2.1 4.5 2 1-.1 1.6.6 2.2 1 1.2 1 1.7.5 4.2 1 2.1.6 4.4.3 6.2 1a8 8 0 003.7.8c1 0 2 2 3.3.2l.5.4c0 1.7.8 1.6 1.9.7.6-.6.6.1.7.4.2.3-.2 1.3.8.7a3 3 0 013.2-.3c1.3 1 2.3 1.2 3.4.0l3.7 1c.8.8 1.2 1 1.3-.5.0-.5.8-.5 1.5-.3 3.2 1 3.4 1 6.8.1 2.3-.5 4.5-1.1 6.8-1.5 1.3-.3 2.6.0 3.4-1.3.1.0.3-.3.4-.2 3 .4 4.9-2.3 7.5-2.9.3.0.5-.4.7-.5 1-.3 2.5.8 3-.7.6-1.8 2-.5 2.9-.9l1-.6c1.7-1 1.7-1 4.6-1 .7.0 1.4.3 2-.1 1.5-1 3-.7 4.5-.2l.7.4c1.5-2.3 3.7.0 5.5-.5a2 2 0 011.3.0c.4.2.8.5 1 .8a2.7 2.7.0 001.8 1 2.8 2.8.0 002-.4c1-.6 1.7-.5 2.2.3a9 9 0 002.3 2.5c1 .7 1.8.4 2.5.7l5.7 3.1c.7.4 1.5.8 2.3 1 1.7.1.0.8.0 1 .3.6.7 1.3 1.4 1.3 2.5.0 2.5.0 3.8 1.2 1.5 1.3 3.1 2.3 5.2 1.3.5-.3 1.2-.7 1.5-.3 1 1.8 3.2 1.4 4.7 2.5.2.2 1.3-.1 2-.6.2-.2.3-.1.6.2.9 1 1.7-1.3 2.4-.1.8 1.2 2.2.2 3 1.2.8.7 1.7.4 2.8-.1 2-1 4.3-2 6.6-.2.4.2 1.1.0 1.2-.8.0-.5-.3-1.5.3-1.5 1.3.0 2.3-.9 3.6-1 .4.0.5.6.5 1 0 .3.4 1 .6.5.4-1.2 1-1.7 2-1.4.8.2 1.3-1.5 2-.1.9-.5 1.7-1.5 2.4-1.4 2.3.3 2.8-2.4 4.7-2.5 1.8.0 3.5.3 4.6-1.5 1 .7 1.5.8 1.7-.6.0-.5 1-.4 1-.2.8 1 1.5.7 2-.1 1-2.2 2.4-3.6 5.2-3.3a5 5 0 002.1-1 31 31 0 018.6-3.7c.4-.1.9.0 1.2-.2.8-.5 1.4-2 2.4-1.3 1.1.6 2.5-.1 3.4.8.9.8 1 .8 1.8-.4.4-.8 2.4-.8 3.7-1.2 1-.2 1.4.5 1.8 1 .6.9 1.5.8 2.3.8 1 0 1.7.0 1.6 1.3.0.4 1 .6 1 .4 1.4-1.8 2.6.2 3.8.2 3 0 5.7 1 8.3 2.2 1.6.8 3.8.2 4.8 2.2.2-.1.4-.4.6-.4a11 11 0 016.9.2c1.3.6 2.9.9 3.7.4 1.5-.9 2.7 1 3.7.2 1.2-1 2.4-.7 3.7-.7 1.6.0 3 0 4.2 1.5.7.7 2.4.3.0 1.4zM3.7 13.8l-.3-.7-.6 1 .5.7c.2-.3.4-.7.4-1zM9 16l-.3-.3-.3.5.3.3c0-.2.2-.4.3-.5zm87.3 2-.3-.3-.3.5.3.3.3-.6zm51.4-7-.3-.6-.3.3c0 .2.2.3.3.5l.3-.2zM196 23l-.3-.3-.6.3.3.3.6-.3zm70.8-13.5c0-.2-.2-.3-.3-.5l-.3.2.3.6.3-.3zm15.8 3-.2-.6-.3.2.2.6.3-.3zM137.1 10c0 .2.1.3.5.3h.5l-.3-.4-.7.1zM56 13.2c-.1.2.0.3.1.3l.1-.4H56zm97.2 3 .3.3.3-.5-.3-.3-.3.6zM69.5 18l-.4.5.3.3c.2-.1.2-.3.3-.5l-.2-.3z"/></svg>